<svg xmlns="http://www.w3.org/2000/svg" viewBox="0 0 32 32" fill="none">
  <rect width="32" height="32" rx="8" fill="#141916"/>
  <rect x="0.5" y="0.5" width="31" height="31" rx="7.5" stroke="#2A3830" stroke-opacity="0.6"/>
  <g transform="translate(3.5, 3.5) scale(0.78125)">
    <!-- Antenna -->
    <rect x="14.75" y="2" width="2.5" height="5" rx="1.25" fill="#739B86"/>
    <circle cx="16" cy="2.5" r="2" fill="#739B86"/>
    <!-- Ears -->
    <rect x="2" y="13" width="2" height="6" rx="1" fill="#739B86"/>
    <rect x="28" y="13" width="2" height="6" rx="1" fill="#739B86"/>
    <!-- Head with cutout visor -->
    <path fill-rule="evenodd" clip-rule="evenodd" d="M 11 6.5 H 21 A 6.5 6.5 0 0 1 27.5 13 V 21 A 6.5 6.5 0 0 1 21 27.5 H 11 A 6.5 6.5 0 0 1 4.5 21 V 13 A 6.5 6.5 0 0 1 11 6.5 Z M 11.5 11 H 20.5 A 4 4 0 0 1 24.5 15 A 4 4 0 0 1 20.5 19 H 11.5 A 4 4 0 0 1 7.5 15 A 4 4 0 0 1 11.5 11 Z" fill="#739B86"/>
    <!-- Twin eyes -->
    <circle cx="12" cy="15" r="1.8" fill="#739B86"/>
    <circle cx="20" cy="15" r="1.8" fill="#739B86"/>
  </g>
</svg>
