<svg xmlns="http://www.w3.org/2000/svg" viewBox="0 0 760 470" fill="none">
  <!-- Herbie lockup: bubble-bot mark + hand-lettered wordmark (light surfaces) -->
  <g transform="translate(226.5,0) scale(0.6) translate(0,22)" fill="#446252">
    <rect x="248" y="44" width="16" height="68" rx="8"/>
    <circle cx="256" cy="36" r="17"/>
    <rect x="56" y="196" width="40" height="80" rx="20"/>
    <rect x="416" y="196" width="40" height="80" rx="20"/>
    <path
      fill-rule="evenodd"
      clip-rule="evenodd"
      d="M 172 104 H 340 A 84 84 0 0 1 424 188 V 284 A 84 84 0 0 1 340 368 H 240 C 234 402 222 432 178 448 C 190 430 186 400 188 368 H 172 A 84 84 0 0 1 88 284 V 188 A 84 84 0 0 1 172 104 Z M 168 224 A 28 28 0 0 1 224 224 L 224 252 A 28 28 0 0 1 168 252 Z M 288 224 A 28 28 0 0 1 344 224 L 344 252 A 28 28 0 0 1 288 252 Z M 218 308 Q 256 348 294 308 Q 256 322 218 308 Z"
    />
  </g>
  <g transform="translate(122,433) scale(0.9)" stroke="#15201A" stroke-width="16" stroke-linecap="round" stroke-linejoin="round" fill="none">
    <!-- H E R B (antenna) I E -->
    <path d="M 0 -100 V 0 M 88 -100 V 0 M 0 -50 H 88 M 122 -100 V 0 M 122 -100 H 194 M 122 -50 H 184 M 122 0 H 194 M 228 -100 V 0 M 228 -100 H 264 A 25 25 0 0 1 264 -50 H 228 M 276 -50 L 310 0 M 344 -100 V 0 M 344 -100 H 388 A 25 25 0 0 1 388 -50 H 344 M 344 -50 H 392 A 25 25 0 0 1 392 0 H 344 M 451 -100 V 0 M 501 -100 V 0 M 501 -100 H 573 M 501 -50 H 563 M 501 0 H 573"/>
    <circle cx="451" cy="-134" r="14" fill="#446252" stroke="none"/>
  </g>
</svg>
